HIERARCHY
ROOT joint_Root
{
	OFFSET 0.0 0.0 0.0
	CHANNELS 6 Xposition Yposition Zposition Zrotation Xrotation Yrotation 
	JOINT Hips
	{
		OFFSET -0.726466 93.3139 -2.00062
		CHANNELS 6 Xposition Yposition Zposition Zrotation Xrotation Yrotation 
		JOINT Spine
		{
			OFFSET 15.7357 0.0 0.0
			CHANNELS 6 Xposition Yposition Zposition Zrotation Xrotation Yrotation 
			JOINT Chest
			{
				OFFSET 8.98455 -0.406207 0.0
				CHANNELS 6 Xposition Yposition Zposition Zrotation Xrotation Yrotation 
				JOINT Neck
				{
					OFFSET 16.3773 0.0 0.0
					CHANNELS 6 Xposition Yposition Zposition Zrotation Xrotation Yrotation 
					JOINT Head
					{
						OFFSET 6.45672 0.0 0.0
						CHANNELS 6 Xposition Yposition Zposition Zrotation Xrotation Yrotation 
						End Site
						{
							OFFSET 0.0 0.0 0.0
						}
					}
				}
				JOINT Shoulder_L
				{
					OFFSET 12.9942 -0.242716 4.98039
					CHANNELS 6 Xposition Yposition Zposition Zrotation Xrotation Yrotation 
					JOINT UpperArm_L
					{
						OFFSET 5.34809 0.0 0.0
						CHANNELS 6 Xposition Yposition Zposition Zrotation Xrotation Yrotation 
						JOINT LowerArm_L
						{
							OFFSET 24.3286 1.87007e-05 0.0
							CHANNELS 6 Xposition Yposition Zposition Zrotation Xrotation Yrotation 
							JOINT Hand_L
							{
								OFFSET 22.2916 0.0 0.0
								CHANNELS 6 Xposition Yposition Zposition Zrotation Xrotation Yrotation 
								End Site
								{
									OFFSET 0.0 0.0 0.0
								}
							}
						}
					}
				}
				JOINT Shoulder_R
				{
					OFFSET 12.9945 -0.242716 -4.98039
					CHANNELS 6 Xposition Yposition Zposition Zrotation Xrotation Yrotation 
					JOINT UpperArm_R
					{
						OFFSET -5.34813 0.0 0.0
						CHANNELS 6 Xposition Yposition Zposition Zrotation Xrotation Yrotation 
						JOINT LowerArm_R
						{
							OFFSET -24.3289 0.000322201 0.0
							CHANNELS 6 Xposition Yposition Zposition Zrotation Xrotation Yrotation 
							JOINT Hand_R
							{
								OFFSET -22.2915 -0.000108084 0.0
								CHANNELS 6 Xposition Yposition Zposition Zrotation Xrotation Yrotation 
								End Site
								{
									OFFSET 0.0 0.0 0.0
								}
							}
						}
					}
				}
			}
		}
		JOINT UpperLeg_L
		{
			OFFSET -2.19248 -6.46944 0.0
			CHANNELS 6 Xposition Yposition Zposition Zrotation Xrotation Yrotation 
			JOINT LowerLeg_L
			{
				OFFSET 39.0811 0.0 -1.23785e-05
				CHANNELS 6 Xposition Yposition Zposition Zrotation Xrotation Yrotation 
				JOINT Foot_L
				{
					OFFSET 40.9854 0.0 -1.26872e-05
					CHANNELS 6 Xposition Yposition Zposition Zrotation Xrotation Yrotation 
					JOINT Toes_L
					{
						OFFSET 11.7543 0.0 0.0
						CHANNELS 6 Xposition Yposition Zposition Zrotation Xrotation Yrotation 
						End Site
						{
							OFFSET 0.0 0.0 0.0
						}
					}
				}
			}
		}
		JOINT UpperLeg_R
		{
			OFFSET -2.19251 6.46944 0.0
			CHANNELS 6 Xposition Yposition Zposition Zrotation Xrotation Yrotation 
			JOINT LowerLeg_R
			{
				OFFSET -39.0811 -0.00228153 -0.0401928
				CHANNELS 6 Xposition Yposition Zposition Zrotation Xrotation Yrotation 
				JOINT Foot_R
				{
					OFFSET -40.9854 0.0 0.0
					CHANNELS 6 Xposition Yposition Zposition Zrotation Xrotation Yrotation 
					JOINT Toes_R
					{
						OFFSET -11.7543 0.0 0.0
						CHANNELS 6 Xposition Yposition Zposition Zrotation Xrotation Yrotation 
						End Site
						{
							OFFSET 0.0 0.0 0.0
						}
					}
				}
			}
		}
	}
}
MOTION
Frames:	6
Frame Time:	0.0333333
0.000000 0.000000 0.000000 0.000000 0.000000 -0.000000 -0.325382 92.281900 -1.194280 88.235800 -0.111566 5.378080 15.735700 0.000005 -0.000001 84.568400 84.810500 -84.016400 8.984550 -0.406207 -0.000000 2.571900 -1.006640 1.125690 16.377300 -0.000001 -0.000001 1.606300 -2.516970 0.213682 6.456720 -0.000001 -0.000000 3.627760 -3.029450 -0.469863 12.994200 -0.242716 4.980390 -89.996500 -0.011190 -72.786400 5.348090 -0.000007 -0.000001 -64.447900 43.229100 -18.363700 24.328600 0.000019 0.000005 3.022640 7.376250 -22.351400 22.291600 -0.000001 0.000005 1.115910 5.457900 -4.936630 12.994500 -0.242716 -4.980390 88.372600 5.457200 -73.366700 -5.348130 -0.000001 -0.000004 -63.967900 39.978000 -17.559400 -24.328900 0.000322 -0.000009 3.420410 10.647700 -17.929700 -22.291500 -0.000108 -0.000004 5.670480 5.374170 -2.116320 -2.192480 -6.469440 -0.000000 -175.587000 -8.453580 -2.130670 39.081100 -0.000007 -0.000012 -0.101755 0.235225 23.392700 40.985400 -0.000006 -0.000013 0.286161 4.394600 -66.071100 11.754300 -0.000000 0.000003 -0.000033 -0.000389 -16.592800 -2.192510 6.469440 -0.000001 178.965000 15.375300 -179.256000 -39.081100 -0.002282 -0.040193 -0.055370 0.161491 19.973000 -40.985400 0.000008 0.000006 2.610230 7.601990 -65.597000 -11.754300 -0.000006 -0.000006 -0.008550 -0.092468 -20.339000
0.000000 0.000000 0.000000 0.000000 0.000000 -0.000000 -0.324485 92.287200 -1.250170 88.233600 -0.128210 5.481420 15.735700 0.000005 -0.000001 84.840500 84.771500 -84.310100 8.984550 -0.406207 -0.000000 2.653680 -0.963226 1.082140 16.377300 -0.000001 -0.000001 1.475210 -2.464720 0.158031 6.456720 -0.000001 -0.000000 3.612960 -3.016170 -0.199666 12.994200 -0.242716 4.980390 -90.096300 0.312479 -72.881200 5.348090 -0.000007 -0.000001 -60.710600 43.014900 -21.523000 24.328600 0.000019 0.000005 5.299780 11.564000 -24.828600 22.291600 -0.000001 0.000005 -1.347030 5.500560 -6.561610 12.994500 -0.242716 -4.980390 88.360000 5.518550 -73.420800 -5.348130 -0.000001 -0.000004 -62.048800 38.355800 -19.487700 -24.328900 0.000322 -0.000009 4.096240 10.792400 -20.934800 -22.291500 -0.000108 -0.000004 4.582100 5.376670 -2.194020 -2.192480 -6.469440 -0.000000 -175.592000 -8.411510 -2.050220 39.081100 -0.000007 -0.000012 -0.100328 0.232082 23.378600 40.985400 -0.000006 -0.000013 0.273527 4.294200 -66.033500 11.754300 -0.000000 0.000003 -0.000045 -0.000513 -16.597500 -2.192510 6.469440 -0.000001 178.964000 15.338000 -179.197000 -39.081100 -0.002282 -0.040193 -0.054672 0.159639 19.965000 -40.985400 0.000008 0.000006 2.583180 7.578640 -65.540100 -11.754300 -0.000006 -0.000006 -0.007965 -0.087743 -20.146000
0.000000 0.000000 0.000000 0.000000 0.000000 -0.000000 -0.342377 92.277900 -1.386900 88.222900 -0.185235 5.642730 15.735700 0.000005 -0.000001 84.854700 84.718200 -84.340900 8.984550 -0.406207 -0.000000 2.759810 -0.968934 1.049750 16.377300 -0.000001 -0.000001 1.577840 -2.370960 0.104232 6.456720 -0.000001 -0.000000 3.559410 -2.905290 -0.055233 12.994200 -0.242716 4.980390 -90.141300 0.459897 -72.921200 5.348090 -0.000007 -0.000001 -56.382900 40.323000 -25.378900 24.328600 0.000019 0.000005 6.303430 11.702800 -28.573300 22.291600 -0.000001 0.000005 -0.117793 5.507370 -6.833190 12.994500 -0.242716 -4.980390 88.350500 5.539100 -73.388100 -5.348130 -0.000001 -0.000004 -59.017500 35.288700 -23.036100 -24.328900 0.000322 -0.000009 5.086810 10.914100 -25.183800 -22.291500 -0.000108 -0.000004 4.584130 5.372440 -2.062520 -2.192480 -6.469440 -0.000000 -175.543000 -8.445870 -2.047540 39.081100 -0.000007 -0.000012 -0.103090 0.236948 23.512700 40.985400 -0.000006 -0.000013 0.264972 4.298780 -66.002600 11.754300 -0.000000 0.000003 -0.000044 -0.000502 -16.597100 -2.192510 6.469440 -0.000001 178.968000 15.263300 -179.207000 -39.081100 -0.002282 -0.040193 -0.058113 0.167797 20.108900 -40.985400 0.000008 0.000006 2.539130 7.539840 -65.503900 -11.754300 -0.000006 -0.000006 -0.008142 -0.089187 -20.205000
0.000000 0.000000 0.000000 0.000000 0.000000 -0.000000 -0.339272 92.277200 -1.535130 88.251400 -0.245427 5.845710 15.735700 0.000005 -0.000001 84.857500 84.717200 -84.373500 8.984550 -0.406207 -0.000000 2.761580 -0.967287 0.990302 16.377300 -0.000001 -0.000001 1.931370 -2.268020 0.120432 6.456720 -0.000001 -0.000000 3.813990 -2.770150 -0.081193 12.994200 -0.242716 4.980390 -90.131700 0.428554 -72.917300 5.348090 -0.000007 -0.000001 -53.612000 33.860300 -28.751200 24.328600 0.000019 0.000005 6.235490 9.699390 -32.969100 22.291600 -0.000001 0.000005 2.244960 5.520460 -7.375970 12.994500 -0.242716 -4.980390 88.357700 5.476740 -73.279400 -5.348130 -0.000001 -0.000004 -55.864900 30.411500 -27.334600 -24.328900 0.000322 -0.000009 6.339620 10.718000 -30.858900 -22.291500 -0.000108 -0.000004 6.221120 5.370570 -2.005240 -2.192480 -6.469440 -0.000000 -175.562000 -8.455290 -1.964490 39.081100 -0.000007 -0.000012 -0.100615 0.230734 23.560400 40.985400 -0.000006 -0.000013 0.272564 4.268720 -65.927800 11.754300 -0.000000 0.000003 -0.000039 -0.000458 -16.595400 -2.192510 6.469440 -0.000001 178.903000 15.192300 -179.151000 -39.081100 -0.002282 -0.040193 -0.060456 0.173327 20.201400 -40.985400 0.000008 0.000006 2.431190 7.567830 -65.429300 -11.754300 -0.000006 -0.000006 -0.008260 -0.090144 -20.244100
0.000000 0.000000 0.000000 0.000000 0.000000 -0.000000 -0.351887 92.275000 -1.673070 88.218900 -0.346982 6.070450 15.735700 0.000005 -0.000001 84.795300 84.764700 -84.306200 8.984550 -0.406207 -0.000000 2.666030 -0.970766 0.999637 16.377300 -0.000001 -0.000001 2.358060 -2.111780 0.105485 6.456720 -0.000001 -0.000000 4.572500 -2.583210 -0.147086 12.994200 -0.242716 4.980390 -90.076700 0.251656 -73.051200 5.348090 -0.000007 -0.000001 -51.732300 25.683500 -32.186200 24.328600 0.000019 0.000005 6.190390 7.801170 -38.630100 22.291600 -0.000001 0.000005 4.168790 5.535800 -8.045860 12.994500 -0.242716 -4.980390 88.406100 5.273360 -73.155700 -5.348130 -0.000001 -0.000004 -52.865200 24.368800 -32.403700 -24.328900 0.000322 -0.000009 7.886410 10.305500 -37.749700 -22.291500 -0.000108 -0.000004 8.181380 5.364420 -1.817390 -2.192480 -6.469440 -0.000000 -175.482000 -8.565690 -1.865860 39.081100 -0.000007 -0.000012 -0.100459 0.229362 23.653200 40.985400 -0.000006 -0.000013 0.278615 4.300010 -65.884400 11.754300 -0.000000 0.000003 -0.000044 -0.000503 -16.597100 -2.192510 6.469440 -0.000001 178.877000 15.201600 -179.039000 -39.081100 -0.002282 -0.040193 -0.064169 0.183028 20.240900 -40.985400 0.000008 0.000006 2.326550 7.695260 -65.332100 -11.754300 -0.000006 -0.000006 -0.008190 -0.089575 -20.220800
0.000000 0.000000 0.000000 0.000000 0.000000 -0.000000 -0.355917 92.269300 -1.785890 88.173200 -0.439791 6.267310 15.735700 0.000005 -0.000001 84.557400 84.833900 -84.061400 8.984550 -0.406207 -0.000000 2.524470 -1.001870 1.012960 16.377300 -0.000001 -0.000001 2.761000 -1.963390 0.072503 6.456720 -0.000001 -0.000000 5.539090 -2.333980 -0.137425 12.994200 -0.242716 4.980390 -89.930100 -0.232274 -73.252600 5.348090 -0.000007 -0.000001 -50.515400 16.999900 -36.011300 24.328600 0.000019 0.000005 7.314550 7.207100 -45.652400 22.291600 -0.000001 0.000005 6.682320 5.550750 -8.729300 12.994500 -0.242716 -4.980390 88.497200 4.960430 -73.122300 -5.348130 -0.000001 -0.000004 -50.366700 17.549900 -38.000500 -24.328900 0.000322 -0.000009 10.179400 10.143300 -45.553400 -22.291500 -0.000108 -0.000004 10.836100 5.358510 -1.637650 -2.192480 -6.469440 -0.000000 -175.404000 -8.607600 -1.793830 39.081100 -0.000007 -0.000012 -0.101728 0.230975 23.770000 40.985400 -0.000006 -0.000013 0.269920 4.254130 -65.868100 11.754300 -0.000000 0.000003 -0.000044 -0.000503 -16.597100 -2.192510 6.469440 -0.000001 178.854000 15.247600 -178.924000 -39.081100 -0.002282 -0.040193 -0.068128 0.193720 20.245200 -40.985400 0.000008 0.000006 2.069610 7.848990 -65.203300 -11.754300 -0.000006 -0.000006 -0.008247 -0.090038 -20.239800
